<svg width="179" height="180" viewBox="0 0 179 180" fill="none" xmlns="http://www.w3.org/2000/svg">
<circle cx="119" cy="86" r="60" fill="#30E8E8" fill-opacity="0.6"/>
<circle cx="60" cy="120" r="60" fill="#31C6E8" fill-opacity="0.6"/>
<circle cx="60" cy="60" r="60" fill="#30E89E" fill-opacity="0.6"/>
<path d="M46.9648 94C42.8633 94 40.8125 91.9492 40.8125 87.8477V85.9141L44.1523 84.332H44.3281V87.8477C44.3281 89.8398 45.207 90.8359 46.9648 90.8359H52.4141C54.1719 90.8359 55.0508 89.8398 55.0508 87.8477V84.1562C55.0508 82.1641 54.1719 81.168 52.4141 81.168H47.668C44.1523 81.168 42.3945 79.4102 42.3945 75.8945V72.7305C42.3945 69.2148 44.1523 67.457 47.668 67.457H51.7109C55.2266 67.457 56.9844 69.2148 56.9844 72.7305V73.6621L53.6445 75.2441H53.4688V72.7305C53.4688 71.3242 52.8828 70.6211 51.7109 70.6211H47.668C46.4961 70.6211 45.9102 71.3242 45.9102 72.7305V75.8945C45.9102 77.3008 46.4961 78.0039 47.668 78.0039H52.4141C56.5156 78.0039 58.5664 80.0547 58.5664 84.1562V87.8477C58.5664 91.9492 56.5156 94 52.4141 94H46.9648ZM70.168 94C69.3711 94 68.7852 93.8184 68.4102 93.4551V100.328L65.0703 101.91H64.8945V79.9375C64.8945 76.4219 66.6523 74.6641 70.168 74.6641H74.2109C77.7266 74.6641 79.4844 76.4219 79.4844 79.9375V88.7266C79.4844 92.2422 77.7266 94 74.2109 94H70.168ZM70.168 90.8359H74.2109C75.3828 90.8359 75.9688 90.1328 75.9688 88.7266V79.9375C75.9688 78.5312 75.3828 77.8281 74.2109 77.8281H70.168C68.9961 77.8281 68.4102 78.5312 68.4102 79.9375V88.7266C68.4102 90.1328 68.9961 90.8359 70.168 90.8359ZM85.6367 94.7031V68.3359L88.9766 66.7539H89.1523V93.1211L85.8125 94.7031H85.6367ZM96.4473 70.7793C96.0371 70.3574 95.832 69.8535 95.832 69.2676C95.832 68.6699 96.0371 68.1602 96.4473 67.7383C96.8574 67.3164 97.3555 67.1055 97.9414 67.1055C98.5273 67.1055 99.0254 67.3164 99.4355 67.7383C99.8457 68.1602 100.051 68.6699 100.051 69.2676C100.051 69.8535 99.8457 70.3574 99.4355 70.7793C99.0254 71.2012 98.5273 71.4121 97.9414 71.4121C97.3555 71.4121 96.8574 71.2012 96.4473 70.7793ZM96.1836 94.7031V75.543L99.5234 73.9609H99.6992V93.1211L96.3594 94.7031H96.1836ZM108.172 94.7031V77.8633H103.654V77.6875L105.078 74.6641H108.172V68.3359L111.512 66.7539H111.688V74.6641H116.205V74.8398L114.781 77.8633H111.688V93.1211L108.348 94.7031H108.172ZM118.402 94V93.8242L127.596 77.8633H118.578V77.6875L120.002 74.6641H133.221V74.8398L124.045 90.8008H133.396V90.9766L131.973 94H118.402Z" fill="black"/>
</svg>
